<?xml version="1.0" standalone="no"?><!DOCTYPE svg PUBLIC "-//W3C//DTD SVG 1.1//EN" "http://www.w3.org/Graphics/SVG/1.1/DTD/svg11.dtd"><svg t="1772939134034" class="icon" viewBox="0 0 1024 1024" version="1.1" xmlns="http://www.w3.org/2000/svg" p-id="13025" xmlns:xlink="http://www.w3.org/1999/xlink" width="200" height="200"><path d="M787.306667 179.477333a26.666667 26.666667 0 0 1 37.696 0l30.186666 30.186667a26.666667 26.666667 0 0 1 0 37.696L236.693333 865.856a26.666667 26.666667 0 0 1-37.696 0l-30.186666-30.165333a26.666667 26.666667 0 0 1 0-37.717334L787.306667 179.477333z m30.165333 7.552a16 16 0 0 0-22.613333 0l-41.493334 41.472 52.8 52.8 41.472-41.472a16 16 0 0 0 0-22.613333L817.493333 187.008z m-18.858667 101.824l-52.8-52.8L466.773333 515.136l52.778667 52.778667L798.634667 288.853333zM512 575.466667L459.2 522.666667l-37.717333 37.717333 52.8 52.8L512 575.466667z m-45.248 45.248l-52.8-52.8-196.117333 196.117333 52.8 52.8 196.117333-196.117333z m-203.648 203.648l-52.8-52.8-33.941333 33.941333a16 16 0 0 0 0 22.634667l30.165333 30.165333a16 16 0 0 0 22.613333 0l33.962667-33.92z" fill="#2B2B30" p-id="13026"></path><path d="M745.813333 303.936a10.666667 10.666667 0 1 1-15.082666-15.082667 10.666667 10.666667 0 0 1 15.082666 15.082667zM413.952 635.797333a10.666667 10.666667 0 1 1-15.082667-15.082666 10.666667 10.666667 0 0 1 15.082667 15.082666zM685.482667 364.266667a10.666667 10.666667 0 1 1-15.082667-15.082667 10.666667 10.666667 0 0 1 15.082667 15.082667zM353.6 696.149333a10.666667 10.666667 0 1 1-15.082667-15.082666 10.666667 10.666667 0 0 1 15.082667 15.082666zM625.130667 424.618667a10.666667 10.666667 0 1 1-15.082667-15.082667 10.666667 10.666667 0 0 1 15.082667 15.082667zM293.269333 756.48a10.666667 10.666667 0 1 1-15.082666-15.082667 10.666667 10.666667 0 0 1 15.082666 15.082667zM564.8 484.949333a10.666667 10.666667 0 1 1-15.082667-15.082666 10.666667 10.666667 0 0 1 15.082667 15.082666z" fill="#2B2B30" p-id="13027"></path><path d="M845.717333 251.626667a5.333333 5.333333 0 0 1 1.322667 7.424 709.909333 709.909333 0 0 0-46.293333 76.714666c-7.722667 14.997333-14.613333 30.08-19.562667 44.010667-4.970667 14.016-7.850667 26.453333-7.850667 36.224 0 11.434667 6.336 23.530667 17.109334 36.608 10.709333 12.970667 25.066667 26.026667 39.808 39.445333l0.192 0.170667c14.528 13.226667 29.44 26.752 40.682666 40.384 11.2 13.589333 19.541333 28.16 19.541334 43.392 0 12.224-5.546667 24.853333-13.76 36.842667-8.277333 12.096-19.626667 24.085333-32.021334 35.136-24.810667 22.101333-54.592 41.088-74.666666 50.218666a5.333333 5.333333 0 1 1-4.416-9.728c19.008-8.64 47.893333-26.986667 71.978666-48.448 12.032-10.730667 22.698667-22.058667 30.314667-33.194666 7.68-11.221333 11.904-21.717333 11.904-30.826667 0-11.434667-6.336-23.530667-17.109333-36.608-10.709333-12.970667-25.066667-26.026667-39.808-39.445333l-0.192-0.170667c-14.528-13.226667-29.44-26.752-40.661334-40.384-11.221333-13.589333-19.562667-28.16-19.562666-43.392 0-11.562667 3.349333-25.344 8.469333-39.786667 5.162667-14.506667 12.288-30.08 20.117333-45.312a720.746667 720.746667 0 0 1 47.04-77.952 5.333333 5.333333 0 0 1 7.424-1.322666z" fill="#2B2B30" p-id="13028"></path><path d="M752.96 693.333333a16 16 0 1 0-8.277333 30.933334 16 16 0 0 0 8.277333-30.933334z m-29.888 8.554667a26.666667 26.666667 0 1 1 51.52 13.802667 26.666667 26.666667 0 0 1-51.52-13.802667zM728.938667 760.213333c-9.28 1.514667-36.096 8.256-52.309334 36.373334-12.949333 22.4-13.162667 33.066667-12.117333 39.957333a68.586667 68.586667 0 0 0 1.109333 5.44c0.405333 1.770667 0.853333 3.797333 1.024 5.909333 0.426667 4.565333-0.341333 9.216-3.541333 14.784-4.053333 6.976-10.368 12.544-16.832 16.832-3.562667 2.346667-7.253333 4.373333-10.773333 6.058667 4.181333 1.045333 8.96 2.069333 13.866666 2.858667 8.96 1.450667 18.026667 2.048 25.237334 0.789333 33.6-5.866667 57.194667-22.741333 66.176-54.101333 9.493333-33.237333-6.314667-65.216-11.84-74.901334z m0.938666-10.901333a7.253333 7.253333 0 0 1 7.04 3.434667c4.074667 6.677333 25.728 44.672 14.122667 85.290666-10.389333 36.266667-38.08 55.317333-74.602667 61.696-8.96 1.557333-19.413333 0.746667-28.757333-0.768a202.88 202.88 0 0 1-23.893333-5.482666 7.402667 7.402667 0 0 1-5.333334-7.189334c0-2.816 1.621333-5.909333 4.949334-7.146666 5.12-1.92 11.306667-4.778667 16.981333-8.533334 5.717333-3.797333 10.581333-8.277333 13.461333-13.269333a13.226667 13.226667 0 0 0 2.176-8.490667 35.52 35.52 0 0 0-0.938666-5.077333 77.504 77.504 0 0 1-1.109334-5.632c-1.536-9.984-0.32-23.125333 13.397334-46.890667 20.373333-35.285333 55.274667-41.109333 62.506666-41.941333z" fill="#2B2B30" p-id="13029"></path></svg>