<?xml version="1.0" standalone="no"?><!DOCTYPE svg PUBLIC "-//W3C//DTD SVG 1.1//EN" "http://www.w3.org/Graphics/SVG/1.1/DTD/svg11.dtd"><svg t="1772939101045" class="icon" viewBox="0 0 1024 1024" version="1.1" xmlns="http://www.w3.org/2000/svg" p-id="10650" xmlns:xlink="http://www.w3.org/1999/xlink" width="200" height="200"><path d="M540.842667 81.386667a26.666667 26.666667 0 0 1 35.605333-13.013334l14.634667 6.869334a26.666667 26.666667 0 0 1 12.842666 35.349333l-53.12 114.517333a16 16 0 0 0-1.472 6.741334v15.061333h37.333334a5.333333 5.333333 0 0 1 0 10.666667h-37.333334v39.530666h37.333334a5.333333 5.333333 0 1 1 0 10.666667h-37.333334V394.666667a5.333333 5.333333 0 1 1-10.666666 0v-162.816c0-3.882667 0.853333-7.701333 2.474666-11.221334l53.098667-114.538666a16 16 0 0 0-7.701333-21.205334l-14.634667-6.869333a16 16 0 0 0-21.354667 7.808l-63.765333 139.306667a16 16 0 0 0-1.450667 6.656V426.666667a5.333333 5.333333 0 1 1-10.666666 0v-118.890667H437.333333a5.333333 5.333333 0 1 1 0-10.666667h37.333334v-39.530666H437.333333a5.333333 5.333333 0 1 1 0-10.666667h37.333334v-15.125333c0-3.84 0.832-7.616 2.410666-11.093334l63.786667-139.306666zM544 442.666667a5.333333 5.333333 0 0 1 5.333333 5.333333v275.776H640c14.72 0 26.666667 11.946667 26.666667 26.666667V896c0 14.72-11.946667 26.666667-26.666667 26.666667H384c-14.72 0-26.666667-11.946667-26.666667-26.666667v-145.557333c0-14.72 11.946667-26.666667 26.666667-26.666667h90.666667V480a5.333333 5.333333 0 1 1 10.666666 0v243.776h53.333334V448a5.333333 5.333333 0 0 1 5.333333-5.333333zM384 734.442667a16 16 0 0 0-16 16V896c0 8.832 7.168 16 16 16h26.666667v-177.557333H384z m37.333333 0v177.557333h170.666667v-177.557333h-170.666667z m181.333334 0v177.557333H640a16 16 0 0 0 16-16v-145.557333a16 16 0 0 0-16-16h-37.333333z" fill="#2B2B30" p-id="10651"></path><path d="M803.477333 338.218667a14.4 14.4 0 0 0-6.954666-19.477334l-54.976-25.024a16 16 0 0 0-14.634667 0.725334L219.776 587.242667a16 16 0 0 0-7.978667 12.821333l-3.093333 47.914667a16.192 16.192 0 0 0 11.989333 16.533333 16.170667 16.170667 0 0 0 20.416-15.125333l0.384-22.784a26.666667 26.666667 0 0 1 13.312-22.656l470.272-271.488a26.666667 26.666667 0 0 1 23.04-1.749334l37.205334 14.549334a14.4 14.4 0 0 0 18.133333-7.04z m-2.538666-29.184a25.066667 25.066667 0 0 1-19.498667 46.144l-37.226667-14.528a16 16 0 0 0-13.802666 1.045333L260.138667 613.184a16 16 0 0 0-7.978667 13.589333l-0.384 22.805334c-0.298667 17.429333-17.173333 29.696-33.834667 25.237333a26.858667 26.858667 0 0 1-19.882666-27.52l3.093333-47.914667a26.666667 26.666667 0 0 1 13.290667-21.376l507.136-292.8a26.666667 26.666667 0 0 1 24.384-1.194666l54.976 25.024z" fill="#2B2B30" p-id="10652"></path><path d="M790.272 350.229333a5.333333 5.333333 0 0 1-1.941333 7.274667l-609.685334 352a5.333333 5.333333 0 1 1-5.333333-9.237333l609.685333-352a5.333333 5.333333 0 0 1 7.274667 1.962666z" fill="#2B2B30" p-id="10653"></path></svg>