<?xml version="1.0" standalone="no"?><!DOCTYPE svg PUBLIC "-//W3C//DTD SVG 1.1//EN" "http://www.w3.org/Graphics/SVG/1.1/DTD/svg11.dtd"><svg t="1772939118492" class="icon" viewBox="0 0 1024 1024" version="1.1" xmlns="http://www.w3.org/2000/svg" p-id="11903" xmlns:xlink="http://www.w3.org/1999/xlink" width="200" height="200"><path d="M417.3 287.2c-18.7 0-33.8-14.9-33.8-33.2 0-18.3 15.1-33.2 33.8-33.2 18.7 0 33.8 14.9 33.8 33.2 0.1 18.4-15.1 33.2-33.8 33.2z m0 0" p-id="11904"></path><path d="M397.9 266.5h38.8v669.4h-38.8zM495.2 287.2c-18.7 0-33.8-14.9-33.8-33.2 0-18.3 15.1-33.2 33.8-33.2 18.7 0 33.8 14.9 33.8 33.2 0 18.4-15.1 33.2-33.8 33.2z m0 0" p-id="11905"></path><path d="M475.8 266.5h38.8v669.4h-38.8zM573.1 287.2c-18.7 0-33.8-14.9-33.8-33.2 0-18.3 15.1-33.2 33.8-33.2 18.7 0 33.8 14.9 33.8 33.2 0 18.4-15.1 33.2-33.8 33.2z m0 0" p-id="11906"></path><path d="M553.7 266.5h38.8v669.4h-38.8zM759 189.6H312.3c-11.8 0-21.3-9.5-21.3-21.3s9.5-21.3 21.3-21.3H759c11.8 0 21.3 9.5 21.3 21.3s-9.5 21.3-21.3 21.3z" p-id="11907"></path><path d="M619.7 959.6H370.8c-31 0-56.4-24.2-57.9-55.2l-23.1-478.5c-0.7-15.1 4.3-29.6 14.2-40.9 13.6-15.5 21.4-37.8 21.4-61.2 0-26.5-10-51.4-26.8-66.7-11.4-10.4-18.1-24.6-18.8-40l-4.5-92.8c-0.8-15.8 5-31.4 15.9-42.8 10.9-11.4 26.2-18 42-18h324.2c15.8 0 31.1 6.6 42 18 10.9 11.4 16.7 27 15.9 42.8l-4.5 92.8c-0.7 15.4-7.4 29.6-18.8 40-16.8 15.3-26.8 40.2-26.8 66.7 0 23.4 7.8 45.7 21.4 61.2 9.9 11.3 14.9 25.8 14.2 40.9l-23.1 478.5c-1.6 30.9-27 55.2-58 55.2zM333.1 110.2c-4.2 0-6.8 2.2-8.1 3.5-1.2 1.3-3.3 4.1-3.1 8.2l4.5 92.8c0.1 3 1.4 5.7 3.6 7.7 26.8 24.4 42.1 61.3 42.1 101.4 0 35.1-11.7 67.8-33 92.1-1.8 2.1-2.8 4.8-2.6 7.7l23.1 478.5c0.3 5.9 5.2 10.6 11.1 10.6h248.9c6 0 10.8-4.7 11.1-10.6l23.1-478.5c0.1-2.9-0.8-5.6-2.6-7.7-21.3-24.3-33-57-33-92.1 0-40 15.4-77 42.1-101.4 2.2-2 3.5-4.7 3.6-7.7l4.5-92.8c0.2-4.1-1.8-6.9-3.1-8.2-1.2-1.3-3.9-3.5-8.1-3.5H333.1z" p-id="11908"></path></svg>