<?xml version="1.0" standalone="no"?><!DOCTYPE svg PUBLIC "-//W3C//DTD SVG 1.1//EN" "http://www.w3.org/Graphics/SVG/1.1/DTD/svg11.dtd"><svg t="1772939036812" class="icon" viewBox="0 0 1024 1024" version="1.1" xmlns="http://www.w3.org/2000/svg" p-id="7277" xmlns:xlink="http://www.w3.org/1999/xlink" width="200" height="200"><path d="M790.784 192.576c9.877333-9.877333 25.877333-11.84 35.648-2.069333l26.069333 26.069333c9.770667 9.770667 7.808 25.770667-2.069333 35.626667l-22.613333 22.656c-6.570667 6.549333-7.018667 16.213333-2.688 22.4 21.568 30.848 34.88 81.557333-1.408 137.834666a120.96 120.96 0 0 1-46.954667 41.877334c-12.8 6.4-25.92 9.984-36.821333 9.92l0.213333 0.490666 1.408 3.029334c1.194667 2.645333 2.538667 5.568 3.84 8.682666 3.754667 8.832 7.552 19.648 8.746667 32.298667 2.474667 25.664-5.802667 57.429333-42.901334 94.506667-27.157333 27.157333-55.338667 40.234667-82.858666 43.861333-27.434667 3.605333-53.781333-2.24-77.269334-12.202667-46.72-19.776-83.157333-56.192-96.234666-69.269333l-0.170667-0.170667c-13.098667-13.077333-49.493333-49.493333-69.290667-96.213333-9.941333-23.509333-15.786667-49.856-12.16-77.290667 3.605333-27.52 16.682667-55.701333 43.818667-82.858666 37.098667-37.098667 68.864-45.376 94.506667-42.922667 12.650667 1.216 23.488 5.013333 32.32 8.746667 3.114667 1.322667 6.037333 2.666667 8.682666 3.861333l3.029334 1.386667 0.490666 0.213333c-0.085333-10.88 3.52-24 9.92-36.8a120.96 120.96 0 0 1 41.856-46.954667c56.298667-36.288 107.008-22.976 137.856-1.408 6.186667 4.309333 15.850667 3.882667 22.4-2.688l22.634667-22.613333z m28.117333 5.482667c-4.608-4.629333-13.781333-4.736-20.565333 2.048l-22.634667 22.613333c-10.090667 10.112-25.493333 11.285333-36.053333 3.904-27.946667-19.541333-73.941333-31.936-125.952 1.621333a110.293333 110.293333 0 0 0-38.122667 42.773334c-7.936 15.829333-10.24 30.336-7.957333 38.805333a5.333333 5.333333 0 0 1-6.528 6.528 68.181333 68.181333 0 0 1-9.834667-3.797333l-3.242666-1.493334c-2.581333-1.152-5.290667-2.410667-8.256-3.648a98.304 98.304 0 0 0-29.162667-7.957333c-21.888-2.090667-50.645333 4.522667-85.973333 39.850667-25.642667 25.642667-37.504 51.733333-40.789334 76.693333-3.285333 25.045333 2.005333 49.450667 11.434667 71.722667 18.922667 44.714667 54.037333 79.893333 67.072 92.928 13.056 13.056 48.213333 48.170667 92.949333 67.093333 22.272 9.429333 46.677333 14.72 71.722667 11.434667 24.96-3.285333 51.050667-15.146667 76.693333-40.810667 35.306667-35.306667 41.941333-64.064 39.850667-85.952a98.346667 98.346667 0 0 0-7.957333-29.162667c-1.258667-2.965333-2.496-5.674667-3.669334-8.256a460.757333 460.757333 0 0 1-1.472-3.242666 67.989333 67.989333 0 0 1-3.797333-9.813334 5.333333 5.333333 0 0 1 6.528-6.549333c8.469333 2.261333 22.976-0.021333 38.805333-7.957333a110.293333 110.293333 0 0 0 42.773334-38.122667c33.536-52.010667 21.162667-98.005333 1.621333-125.952-7.381333-10.56-6.208-25.962667 3.882667-36.053333l22.613333-22.613334c6.805333-6.805333 6.677333-15.978667 2.069333-20.586666l-26.048-26.048z" fill="#2B2B30" p-id="7278"></path><path d="M402.005333 520.32a5.333333 5.333333 0 0 1 0 7.552l-150.848 150.826667a16 16 0 0 0 0 22.634666l18.858667 18.858667 162.154667-162.154667a5.333333 5.333333 0 1 1 7.552 7.530667l-233.813334 233.813333a16 16 0 0 0 0 22.634667l15.082667 15.082667a16 16 0 0 0 22.613333 0l233.813334-233.813334a5.333333 5.333333 0 0 1 7.552 7.552l-162.154667 162.133334 18.858667 18.88a16 16 0 0 0 22.613333 0l150.848-150.848a5.333333 5.333333 0 1 1 7.552 7.530666l-150.848 150.848a26.666667 26.666667 0 0 1-37.717333 0l-18.858667-18.837333-64.106667 64.106667a26.666667 26.666667 0 0 1-37.717333 0l-15.082667-15.082667a26.666667 26.666667 0 0 1 0-37.717333l64.106667-64.106667-18.858667-18.858667a26.666667 26.666667 0 0 1 0-37.717333l150.869334-150.848a5.333333 5.333333 0 0 1 7.530666 0zM797.098667 345.365333a5.333333 5.333333 0 0 1 6.144 4.373334c2.666667 16.042667 1.130667 40.149333-12.522667 60.416-13.866667 20.608-39.594667 36.309333-83.242667 36.309333a5.333333 5.333333 0 0 1 0-10.666667c40.832 0 62.869333-14.506667 74.389334-31.573333 11.733333-17.450667 13.226667-38.613333 10.858666-52.736a5.333333 5.333333 0 0 1 4.373334-6.122667z" fill="#2B2B30" p-id="7279"></path></svg>