<?xml version="1.0" standalone="no"?><!DOCTYPE svg PUBLIC "-//W3C//DTD SVG 1.1//EN" "http://www.w3.org/Graphics/SVG/1.1/DTD/svg11.dtd"><svg t="1772938974032" class="icon" viewBox="0 0 1024 1024" version="1.1" xmlns="http://www.w3.org/2000/svg" p-id="4906" xmlns:xlink="http://www.w3.org/1999/xlink" width="200" height="200"><path d="M722.666667 141.781333a21.333333 21.333333 0 1 0-21.333334 36.949334 21.333333 21.333333 0 0 0 21.333334-36.949334z m-47.616-2.858666a42.666667 42.666667 0 1 1 73.898666 42.666666 42.666667 42.666667 0 0 1-73.898666-42.666666zM598.101333 186.88a5.333333 5.333333 0 0 0 1.941334 7.274667l32.341333 18.666666a32 32 0 0 1 11.712 43.733334l18.474667 10.666666a32 32 0 0 1 43.733333-11.733333l32.32 18.666667a5.333333 5.333333 0 1 0 5.333333-9.237334l-138.581333-80a5.333333 5.333333 0 0 0-7.274667 1.962667z m97.514667 87.082667a10.666667 10.666667 0 0 0-14.570667 3.904l41.578667 24a26.666667 26.666667 0 1 1-26.666667 46.186666l-41.578666-24-42.666667 73.898667c-31.082667 53.845333-53.44 112.96-60.501333 230.549333-7.232 120.490667-35.733333 192.128-57.984 230.677334-14.144 24.533333-31.018667 40.96-49.536 50.986666-18.496 10.005333-37.973333 13.248-56.832 12.458667-37.248-1.6-72.789333-19.093333-96.192-32.597333l-0.128-0.064c-23.381333-13.525333-56.213333-35.541333-76.181334-66.944-10.133333-15.914667-17.066667-34.410667-17.642666-55.466667-0.576-21.034667 5.226667-43.861333 19.392-68.373333 22.250667-38.549333 70.037333-99.050667 170.773333-165.546667 98.304-64.917333 138.325333-113.834667 169.408-167.68l42.666667-73.898667-41.578667-24a26.666667 26.666667 0 0 1 26.666667-46.186666l41.578666 24a10.666667 10.666667 0 0 0-3.904-14.570667l-32.341333-18.666667a26.666667 26.666667 0 0 1 26.666667-46.186666l138.581333 80a26.666667 26.666667 0 1 1-26.666667 46.186666l-32.341333-18.666666z m-71.701333 11.733333c0.597333 2.56 0.256 5.333333-1.152 7.786667l-48 83.136 18.474666 10.666666 48-83.136 0.128-0.213333 0.128-0.213333a10.666667 10.666667 0 0 1 14.314667-3.477334l50.816 29.333334a5.333333 5.333333 0 1 0 5.333333-9.237334l-50.816-29.333333-36.949333-21.333333-50.816-29.333334a5.333333 5.333333 0 1 0-5.333333 9.237334l50.816 29.333333a10.624 10.624 0 0 1 5.056 6.784z m-137.92 199.786667l57.344 33.130666c9.557333-46.208 23.061333-81.024 39.594666-112.64l-19.2-11.093333c-19.114667 30.122667-42.496 59.242667-77.738666 90.602667z m53.226666 55.36l-70.442666-40.64a831.04 831.04 0 0 1-70.144 51.2c-98.304 64.917333-143.637333 123.093333-164.053334 158.442666-12.522667 21.674667-16.981333 40.64-16.533333 57.130667 0.448 16.512 5.866667 31.317333 14.293333 44.586667 17.130667 26.922667 46.208 46.826667 68.992 59.989333l0.128 0.064c22.762667 13.141333 54.506667 28.330667 86.314667 29.674667 15.701333 0.682667 31.232-2.026667 45.76-9.898667 14.506667-7.850667 28.714667-21.205333 41.216-42.88 20.416-35.349333 48.106667-103.701333 55.168-221.290667 1.962667-32.725333 5.12-61.162667 9.301333-86.378666z m-114.837333 32.234666a10.666667 10.666667 0 0 0-10.666667 18.496l73.898667 42.666667a10.666667 10.666667 0 1 0 10.666667-18.496l-73.898667-42.666667z m-46.570667 59.349334a10.666667 10.666667 0 0 1 14.570667-3.904l73.898667 42.666666a10.666667 10.666667 0 0 1-10.666667 18.474667l-73.898667-42.666667a10.666667 10.666667 0 0 1-3.904-14.570666z m-99.904 151.68a10.666667 10.666667 0 0 0-10.666666 18.496l110.848 64a10.666667 10.666667 0 0 0 10.666666-18.474667l-110.848-64z m86.378667-85.589334a10.666667 10.666667 0 0 1 14.570667-3.925333l36.949333 21.333333a10.666667 10.666667 0 0 1-10.666667 18.496l-36.949333-21.333333a10.666667 10.666667 0 0 1-3.904-14.570667z m-6.762667 33.045334a10.666667 10.666667 0 0 0-10.666666 18.474666l36.949333 21.333334a10.666667 10.666667 0 1 0 10.666667-18.474667l-36.949334-21.333333z" fill="#2B2B30" p-id="4907"></path></svg>