<?xml version="1.0" standalone="no"?><!DOCTYPE svg PUBLIC "-//W3C//DTD SVG 1.1//EN" "http://www.w3.org/Graphics/SVG/1.1/DTD/svg11.dtd"><svg t="1772939078176" class="icon" viewBox="0 0 1024 1024" version="1.1" xmlns="http://www.w3.org/2000/svg" p-id="9492" xmlns:xlink="http://www.w3.org/1999/xlink" width="200" height="200"><path d="M825.002667 179.477333a26.666667 26.666667 0 0 0-37.696 0L168.810667 797.973333a26.666667 26.666667 0 0 0 0 37.717334l30.186666 30.165333a26.666667 26.666667 0 0 0 37.696 0l618.496-618.496a26.666667 26.666667 0 0 0 0-37.696l-30.186666-30.186667z m-30.165334 7.552a16 16 0 0 1 22.613334 0l30.186666 30.165334a16 16 0 0 1 0 22.613333l-41.472 41.514667-52.8-52.8 41.472-41.493334z m-49.024 49.024l52.8 52.8-279.061333 279.082667-52.8-52.8L745.813333 236.053333zM459.2 522.666667L512 575.466667l-37.717333 37.717333-52.8-52.8 37.717333-37.717333z m-45.248 45.269333l52.8 52.778667-196.117333 196.117333-52.8-52.8 196.117333-196.096z m-203.648 203.626667l52.8 52.8-33.941333 33.941333a16 16 0 0 1-22.613334 0L176.341333 828.16a16 16 0 0 1 0-22.613333l33.92-33.962667z m520.426667-467.626667a10.666667 10.666667 0 1 0 15.082666-15.082667 10.666667 10.666667 0 0 0-15.082666 15.082667z m-316.8 331.861333a10.666667 10.666667 0 1 1-15.061334-15.061333 10.666667 10.666667 0 0 1 15.082667 15.061333z m256.469333-271.530666a10.666667 10.666667 0 1 0 15.082667-15.082667 10.666667 10.666667 0 0 0-15.082667 15.082667z m-316.8 331.882666a10.666667 10.666667 0 1 1-15.082667-15.104 10.666667 10.666667 0 0 1 15.082667 15.104z m256.448-271.530666a10.666667 10.666667 0 1 0 15.082667-15.082667 10.666667 10.666667 0 0 0-15.082667 15.082667z m-45.248 60.330666a10.666667 10.666667 0 1 1-15.082667-15.082666 10.666667 10.666667 0 0 1 15.082667 15.082666z" fill="#2B2B30" p-id="9493"></path></svg>