<?xml version="1.0" standalone="no"?><!DOCTYPE svg PUBLIC "-//W3C//DTD SVG 1.1//EN" "http://www.w3.org/Graphics/SVG/1.1/DTD/svg11.dtd"><svg t="1772939000584" class="icon" viewBox="0 0 1024 1024" version="1.1" xmlns="http://www.w3.org/2000/svg" p-id="6068" xmlns:xlink="http://www.w3.org/1999/xlink" width="200" height="200"><path d="M757.333333 106.666667a32 32 0 1 1-64 0 32 32 0 0 1 64 0z m-84.266666 10.666666a53.333333 53.333333 0 1 0 0-21.333333H256a10.666667 10.666667 0 0 0 0 21.333333h417.066667zM298.666667 202.666667a32 32 0 1 0 0 64 32 32 0 0 0 0-64z m0-21.333334a53.333333 53.333333 0 0 1 52.266666 42.666667H768a10.666667 10.666667 0 0 1 0 21.333333H350.933333a53.333333 53.333333 0 1 1-52.266666-64z m157.568 116.245334c102.613333-7.381333 219.797333 3.2 328.64 53.44 1.045333 0.490667 2.133333 0.789333 3.2 0.917333l-28.48 106.304a452.245333 452.245333 0 0 0-53.888-27.477333l8.618666-33.429334a10.666667 10.666667 0 1 0-20.650666-5.333333l-7.936 30.762667a469.76 469.76 0 0 0-89.792-23.594667c0.874667-14.784 1.386667-24.128 1.386666-25.834667a10.666667 10.666667 0 0 0-21.333333 0v0.256l-0.042667 0.725334c0 0.64-0.064 1.472-0.106666 2.517333a1410.304 1410.304 0 0 1-1.088 19.413333 546.432 546.432 0 0 0-125.525334 0.128 5789.973333 5789.973333 0 0 1-1.194666-22.058666L448 373.589333V373.333333a10.666667 10.666667 0 0 0-21.333333 0c0 1.706667 0.512 11.029333 1.386666 25.813334a623.914667 623.914667 0 0 0-90.581333 20.522666l-7.146667-27.669333a10.666667 10.666667 0 1 0-20.650666 5.333333l7.466666 28.949334c-27.733333 9.6-51.669333 20.181333-70.570666 30.229333l-28.309334-105.685333c48.810667-20.8 135.829333-45.909333 237.973334-53.248z m224.128 145.962666l-49.28 190.997334a342.912 342.912 0 0 0-49.066667-12.970667c4.565333-71.530667 9.642667-151.552 12.650667-201.002667 28.458667 4.714667 57.194667 12.16 85.696 22.976z m-29.226667 198.656l49.173333-190.528c17.322667 7.573333 34.517333 16.448 51.477334 26.773334 0.682667 0.426667 1.408 0.746667 2.133333 1.002666l-50.88 189.866667a346.24 346.24 0 0 0-51.904-27.093333z m-25.408 13.12l-17.386667 67.349334a10.666667 10.666667 0 1 0 20.650667 5.333333l16.746667-64.874667c17.301333 7.424 34.517333 16.618667 51.498666 27.84l-34.773333 129.834667c-56.938667-25.322667-122.389333-30.357333-180.736-26.666667-55.829333 3.584-106.090667 15.210667-137.813333 25.706667l-33.877334-126.528a10.602667 10.602667 0 0 0 4.992-1.621333c15.68-9.898667 37.162667-20.693333 62.848-30.08l17.130667 66.389333a10.666667 10.666667 0 1 0 20.650667-5.333333l-17.514667-67.904a414.784 414.784 0 0 1 45.269333-11.178667L448 715.349333a10.666667 10.666667 0 0 0 21.290667-1.365333l-4.736-73.813333a365.077333 365.077333 0 0 1 94.890666-0.512l-4.778666 74.325333a10.666667 10.666667 0 0 0 21.290666 1.365333l4.650667-72.256c14.933333 2.901333 30.016 6.933333 45.098667 12.224z m-64.896-37.034666a385.578667 385.578667 0 0 0-97.621333 0.576 132176.234667 132176.234667 0 0 1-12.672-201.173334 524.394667 524.394667 0 0 1 122.944-0.128 135238.4 135238.4 0 0 1-12.650667 200.725334z m-308.586667-140.586667c18.133333-10.026667 42.048-20.842667 70.250667-30.677333l50.026667 193.856c-27.733333 10.005333-50.986667 21.589333-67.925334 32.170666l-52.352-195.349333z m90.56-37.333333a603.072 603.072 0 0 1 86.528-19.84c3.029333 49.557333 8.106667 129.92 12.693334 201.642666-17.322667 3.157333-33.813333 7.253333-49.216 11.968l-50.005334-193.792z m111.893334-164.053334c-102.592 7.36-190.570667 32.234667-242.005334 53.717334l-1.749333-6.485334a32 32 0 0 0-39.189333-22.613333l-77.013334 20.629333a32 32 0 0 0-22.613333 39.189334L212.266667 883.733333a32 32 0 0 0 39.189333 22.634667l77.013333-20.629333a32 32 0 0 0 22.613334-39.189334l-1.621334-6.058666c29.909333-10.026667 78.933333-21.546667 133.610667-25.045334 57.642667-3.669333 120.533333 1.664 173.781333 26.24l-1.578666 5.909334a32 32 0 0 0 22.613333 39.189333l73.130667 19.584a32 32 0 0 0 39.189333-22.613333L930.346667 360.746667a32 32 0 0 0-22.634667-39.189334l-73.109333-19.584a32 32 0 0 0-39.189334 22.613334l-1.856 6.933333c-112.981333-52.053333-233.898667-62.784-338.858666-55.232zM177.28 321.514667a10.666667 10.666667 0 0 1 13.077333 7.530666L330.453333 852.053333a10.666667 10.666667 0 0 1-7.530666 13.077334l-77.013334 20.629333a10.666667 10.666667 0 0 1-13.056-7.552L92.736 355.221333a10.666667 10.666667 0 0 1 7.552-13.056l77.013333-20.629333z m724.906667 20.629333a10.666667 10.666667 0 0 1 7.552 13.056l-140.16 523.008a10.666667 10.666667 0 0 1-13.056 7.530667l-73.109334-19.584a10.666667 10.666667 0 0 1-7.530666-13.056l140.117333-523.008a10.666667 10.666667 0 0 1 13.077333-7.530667l73.109334 19.584z" fill="#2B2B30" p-id="6069"></path></svg>